<?xml version="1.0" encoding="UTF-8" standalone="no"?>
<!-- Created with Inkscape (http://www.inkscape.org/) -->

<svg
   width="524.35492"
   height="524.35419"
   viewBox="0 0 138.73557 138.73538"
   version="1.1"
   id="svg1"
   xmlns="http://www.w3.org/2000/svg"
   xmlns:svg="http://www.w3.org/2000/svg">
  <defs
     id="defs1" />
  <g
     id="layer1"
     transform="translate(-32.913056,-71.050957)">
    <g
       id="g95">
      <path
         id="rect80"
         style="fill:#62007a;stroke-width:0.321017"
         d="m 102.2811,71.05096 c -3.381629,0 -6.763297,1.295409 -9.354472,3.886585 L 36.799821,131.06435 c -5.182351,5.18236 -5.182352,13.52607 0,18.70842 l 56.126807,56.12681 c 5.182344,5.18234 13.526062,5.18235 18.708422,0 l 56.1268,-56.12681 c 5.18236,-5.18234 5.18235,-13.52607 0,-18.70842 l -12.85451,-12.85451 -34.84645,34.84697 -8.8868,8.88628 -4.20956,4.20956 -2.33836,2.33887 c -1.29559,1.29559 -3.38166,1.29559 -4.677232,0 l -2.338875,-2.33887 -13.095842,-13.09584 -7.951452,-7.95146 c -1.295589,-1.29558 -1.295589,-3.38164 0,-4.67723 l 6.54792,-6.54792 c 1.295579,-1.29559 3.381645,-1.29559 4.677234,0 l 3.274219,3.2737 10.055718,10.05624 c 0.64779,0.6478 1.69109,0.64778 2.33887,0 l 40.22546,-40.22546 -32.04714,-32.047135 c -2.59118,-2.591176 -5.97233,-3.886584 -9.35395,-3.886585 z" />
      <path
         id="rect81"
         style="fill:#46005c;stroke-width:0.254806"
         d="m 102.2811,88.392537 c -2.536222,2e-6 -5.072732,0.971686 -7.016114,2.915068 L 53.169881,133.40271 c -3.886763,3.88677 -3.886764,10.14494 0,14.0317 l 42.095105,42.09511 c 3.886764,3.88676 10.144934,3.88676 14.031704,0 l 42.0951,-42.09511 c 3.88677,-3.88675 3.88677,-10.14493 0,-14.0317 l -5.8384,-5.8384 -25.4925,25.4925 -8.8868,8.88628 -4.20956,4.20956 -2.33836,2.33887 c -1.29559,1.29559 -3.38166,1.29559 -4.677232,0 l -2.338875,-2.33887 -13.095842,-13.09584 -7.951452,-7.95146 c -1.295589,-1.29558 -1.295589,-3.38164 0,-4.67723 l 6.54792,-6.54792 c 1.295579,-1.29559 3.381645,-1.29559 4.677234,0 l 3.274219,3.2737 10.055718,10.05624 c 0.64779,0.6478 1.69109,0.64778 2.33887,0 l 30.87099,-30.8715 -25.03103,-25.031035 c -1.94338,-1.943382 -4.47938,-2.915069 -7.01559,-2.915068 z" />
      <path
         id="rect82"
         style="fill:#340047;stroke-width:0.169871"
         d="m 102.2811,105.73463 c -1.69082,0 -3.381652,0.64796 -4.677239,1.94355 l -28.063403,28.06341 c -2.591175,2.59117 -2.591176,6.76277 0,9.35395 l 28.063403,28.0634 c 2.591169,2.59117 6.762779,2.59117 9.353949,0 l 28.06341,-28.0634 c 2.18338,-2.18338 2.51985,-5.48609 1.02371,-8.02277 l -15.98404,15.98404 -8.8868,8.88628 -4.20956,4.20956 -2.33836,2.33887 c -1.29559,1.29559 -3.38166,1.29559 -4.677232,0 l -2.338875,-2.33887 -13.095842,-13.09584 -7.951452,-7.95146 c -1.295589,-1.29558 -1.295589,-3.38164 0,-4.67723 l 6.54792,-6.54792 c 1.295579,-1.29559 3.381645,-1.29559 4.677234,0 l 3.274219,3.2737 10.055718,10.05624 c 0.64779,0.6478 1.69109,0.64778 2.33887,0 l 21.51652,-21.51652 -18.01544,-18.01544 c -1.29559,-1.29559 -2.9859,-1.94355 -4.67671,-1.94355 z" />
      <path
         id="rect83"
         style="fill:#240033;stroke-width:0.0849353"
         d="m 102.2811,123.07673 c -0.84541,-1e-5 -1.69109,0.32372 -2.33888,0.97151 l -10.993127,10.99313 2.113049,2.11253 10.055718,10.05624 c 0.64779,0.6478 1.69109,0.64778 2.33887,0 l 12.16205,-12.16257 -10.99933,-10.99933 c -0.64779,-0.64779 -1.49295,-0.97151 -2.33835,-0.97151 z" />
    </g>
  </g>
</svg>
