<?xml version="1.0" encoding="UTF-8" standalone="no"?>
<!-- Created with Inkscape (http://www.inkscape.org/) -->

<svg
   width="653.25726"
   height="653.25732"
   viewBox="0 0 172.84098 172.841"
   version="1.1"
   id="svg1"
   xmlns="http://www.w3.org/2000/svg"
   xmlns:svg="http://www.w3.org/2000/svg">
  <defs
     id="defs1" />
  <g
     id="layer1"
     transform="translate(260.48578,-327.80023)">
    <g
       id="g4">
      <circle
         style="fill:#750092;fill-opacity:1;stroke-width:0.264583"
         id="path4"
         cx="-174.06531"
         cy="414.22073"
         r="86.420494" />
      <rect
         style="fill:#f9f9f9;fill-opacity:1;stroke-width:0.20657"
         id="rect3"
         width="81.416542"
         height="81.007759"
         x="127.88638"
         y="363.25571"
         transform="rotate(44.996892)" />
      <path
         id="rect80-9-6"
         style="fill:#62007a;stroke-width:0.321017"
         d="m -174.06505,344.85321 c -3.38163,0 -6.7633,1.29541 -9.35447,3.88659 l -56.12681,56.1268 c -5.18235,5.18236 -5.18235,13.52607 0,18.70842 l 56.12681,56.12681 c 5.18234,5.18234 13.52606,5.18235 18.70842,0 l 56.1268,-56.12681 c 5.18236,-5.18234 5.18235,-13.52607 0,-18.70842 l -12.85451,-12.85451 -34.84645,34.84697 -8.8868,8.88628 -4.20956,4.20956 -2.33836,2.33887 c -1.29559,1.29559 -3.38166,1.29559 -4.67723,0 l -2.33888,-2.33887 -13.09584,-13.09584 -7.95145,-7.95146 c -1.29559,-1.29558 -1.29559,-3.38164 0,-4.67723 l 6.54792,-6.54792 c 1.29558,-1.29559 3.38164,-1.29559 4.67723,0 l 3.27422,3.2737 10.05572,10.05624 c 0.64779,0.6478 1.69109,0.64778 2.33887,0 l 40.22546,-40.22546 -32.04714,-32.04714 c -2.59118,-2.59117 -5.97233,-3.88658 -9.35395,-3.88658 z" />
      <path
         id="rect81-74-0"
         style="fill:#46005c;stroke-width:0.254806"
         d="m -174.06505,362.19479 c -2.53622,0 -5.07273,0.97168 -7.01611,2.91507 l -42.09511,42.0951 c -3.88676,3.88677 -3.88676,10.14494 0,14.0317 l 42.09511,42.09511 c 3.88676,3.88676 10.14493,3.88676 14.0317,0 l 42.0951,-42.09511 c 3.88677,-3.88675 3.88677,-10.14493 0,-14.0317 l -5.8384,-5.8384 -25.4925,25.4925 -8.8868,8.88628 -4.20956,4.20956 -2.33836,2.33887 c -1.29559,1.29559 -3.38166,1.29559 -4.67723,0 l -2.33888,-2.33887 -13.09584,-13.09584 -7.95145,-7.95146 c -1.29559,-1.29558 -1.29559,-3.38164 0,-4.67723 l 6.54792,-6.54792 c 1.29558,-1.29559 3.38164,-1.29559 4.67723,0 l 3.27422,3.2737 10.05572,10.05624 c 0.64779,0.6478 1.69109,0.64778 2.33887,0 l 30.87099,-30.8715 -25.03103,-25.03103 c -1.94338,-1.94339 -4.47938,-2.91507 -7.01559,-2.91507 z" />
      <path
         id="rect82-9-6"
         style="fill:#340047;stroke-width:0.169871"
         d="m -174.06505,379.53688 c -1.69082,0 -3.38165,0.64796 -4.67724,1.94355 l -28.0634,28.06341 c -2.59118,2.59117 -2.59118,6.76277 0,9.35395 l 28.0634,28.0634 c 2.59117,2.59117 6.76278,2.59117 9.35395,0 l 28.06341,-28.0634 c 2.18338,-2.18338 2.51985,-5.48609 1.02371,-8.02277 l -15.98404,15.98404 -8.8868,8.88628 -4.20956,4.20956 -2.33836,2.33887 c -1.29559,1.29559 -3.38166,1.29559 -4.67723,0 l -2.33888,-2.33887 -13.09584,-13.09584 -7.95145,-7.95146 c -1.29559,-1.29558 -1.29559,-3.38164 0,-4.67723 l 6.54792,-6.54792 c 1.29558,-1.29559 3.38164,-1.29559 4.67723,0 l 3.27422,3.2737 10.05572,10.05624 c 0.64779,0.6478 1.69109,0.64778 2.33887,0 l 21.51652,-21.51652 -18.01544,-18.01544 c -1.29559,-1.29559 -2.9859,-1.94355 -4.67671,-1.94355 z" />
      <path
         id="rect83-4-2"
         style="fill:#240033;stroke-width:0.0849353"
         d="m -174.06505,396.87898 c -0.84541,-1e-5 -1.69109,0.32372 -2.33888,0.97151 l -10.99313,10.99313 2.11305,2.11253 10.05572,10.05624 c 0.64779,0.6478 1.69109,0.64778 2.33887,0 l 12.16205,-12.16257 -10.99933,-10.99933 c -0.64779,-0.64779 -1.49295,-0.97151 -2.33835,-0.97151 z" />
    </g>
  </g>
</svg>
