<?xml version="1.0" encoding="UTF-8" standalone="no"?>
<!-- Created with Inkscape (http://www.inkscape.org/) -->

<svg
   width="135.46666mm"
   height="135.46669mm"
   viewBox="0 0 135.46666 135.46669"
   version="1.1"
   id="svg1"
   inkscape:version="1.4 (e7c3feb100, 2024-10-09)"
   sodipodi:docname="purple-check-logo-working-file.svg"
   xml:space="preserve"
   xmlns:inkscape="http://www.inkscape.org/namespaces/inkscape"
   xmlns:sodipodi="http://sodipodi.sourceforge.net/DTD/sodipodi-0.dtd"
   xmlns="http://www.w3.org/2000/svg"
   xmlns:svg="http://www.w3.org/2000/svg"><sodipodi:namedview
     id="namedview1"
     pagecolor="#ffffff"
     bordercolor="#000000"
     borderopacity="0.25"
     inkscape:showpageshadow="2"
     inkscape:pageopacity="0.0"
     inkscape:pagecheckerboard="0"
     inkscape:deskcolor="#d1d1d1"
     inkscape:document-units="mm"
     inkscape:zoom="0.98094502"
     inkscape:cx="-10.194251"
     inkscape:cy="-634.08243"
     inkscape:window-width="1920"
     inkscape:window-height="1011"
     inkscape:window-x="0"
     inkscape:window-y="32"
     inkscape:window-maximized="1"
     inkscape:current-layer="layer1"
     showguides="true"
     inkscape:export-bgcolor="#ffffff00"><sodipodi:guide
       position="-47.60692,-144.59762"
       orientation="1,0"
       id="guide19"
       inkscape:locked="false" /><sodipodi:guide
       position="-149.52121,-224.81048"
       orientation="0,-1"
       id="guide20"
       inkscape:locked="false" /><sodipodi:guide
       position="86.996862,-142.40001"
       orientation="1,0"
       id="guide21"
       inkscape:locked="false" /><inkscape:page
       x="0"
       y="9.8534991e-12"
       width="135.46666"
       height="135.46667"
       id="page2"
       margin="0"
       bleed="0" /></sodipodi:namedview><defs
     id="defs1" /><g
     inkscape:label="Layer 1"
     inkscape:groupmode="layer"
     id="layer1"
     transform="translate(-54.749164,543.22845)"><g
       id="g16-6-0"
       inkscape:label="Main"
       inkscape:export-filename="logo-v6-with-bg-round.png"
       inkscape:export-xdpi="96"
       inkscape:export-ydpi="96"
       transform="matrix(1.0199203,0,0,1.0199203,15.320975,-626.95323)"><rect
         style="display:none;fill:#5c149b;fill-opacity:1;stroke-width:0.265641"
         id="rect17-2-6"
         width="132.82083"
         height="132.82083"
         x="38.658112"
         y="82.089577"
         inkscape:export-filename="logo.jpg"
         inkscape:export-xdpi="96"
         inkscape:export-ydpi="96" /><circle
         style="fill:#5c149b;fill-opacity:1;stroke:#4b0386;stroke-width:0.139773"
         id="path2"
         cx="4.7612782"
         cy="-183.62083"
         r="67.663445"
         transform="matrix(0.98046878,0,0,0.98046878,100.40024,328.53449)" /><g
         id="g63-6-2"
         transform="matrix(1.0235425,0,0,1.0235425,-6.0526162,0.33821614)"
         inkscape:export-filename="logo-v6.svg"
         inkscape:export-xdpi="96"
         inkscape:export-ydpi="96"><path
           sodipodi:type="star"
           style="opacity:1;fill:#aa2cd8;fill-opacity:1;fill-rule:evenodd;stroke:#4b0386;stroke-width:0.688962;stroke-linejoin:miter;stroke-dasharray:none;stroke-opacity:1"
           id="path4-7-7-8-1"
           inkscape:flatsided="false"
           sodipodi:sides="11"
           sodipodi:cx="-138.56763"
           sodipodi:cy="-455.73929"
           sodipodi:r1="107.80464"
           sodipodi:r2="92.71199"
           sodipodi:arg1="0.8131688"
           sodipodi:arg2="1.0911683"
           inkscape:rounded="0.26"
           inkscape:randomized="0"
           d="m -64.484293,-377.42262 c -5.915738,5.68187 -23.995971,0.20478 -31.30146,3.93432 -7.613167,3.8866 -14.412737,22.03744 -22.800197,23.68566 -8.04848,1.5816 -20.29741,-12.80093 -28.45951,-13.61309 -8.50587,-0.84637 -24.03911,10.74697 -31.98618,7.59893 -7.6259,-3.02081 -10.15457,-21.74243 -16.58188,-26.83843 -6.69801,-5.31063 -26.03324,-3.9556 -31.01678,-10.90041 -4.78214,-6.66414 3.21228,-23.78087 0.56039,-31.54277 -2.76358,-8.0888 -19.76199,-17.40229 -20.19977,-25.93894 -0.42009,-8.19165 15.55925,-18.26905 17.52474,-26.23249 2.04826,-8.29884 -7.21646,-25.32388 -2.96948,-32.74205 4.07534,-7.11837 22.96627,-6.95694 28.92511,-12.59359 6.2098,-5.87406 7.62025,-25.20532 15.2036,-29.14979 7.27688,-3.78505 23.08166,6.56396 31.14196,5.04369 8.39976,-1.58429 20.03758,-17.08424 28.54964,-16.30267 8.16806,0.74999 15.86879,18.00084 23.47146,21.07964 7.92287,3.20846 26.093126,-3.53904 32.831382,1.72043 6.465933,5.04691 3.617681,23.72258 8.348933,30.42294 4.930516,6.98256 23.864286,11.12978 26.689384,19.1973 2.710923,7.74148 -9.78201,21.91257 -9.424316,30.10718 0.372758,8.53974 14.058702,22.26498 12.073694,30.57917 -1.904786,7.97818 -20.075982,13.14548 -24.205412,20.23261 -4.303347,7.38561 -0.210419,26.33119 -6.375308,32.25236 z"
           inkscape:transform-center-x="0.082221287"
           inkscape:transform-center-y="-0.7038046"
           transform="matrix(0.37057345,-0.03073459,0.03141197,0.36258207,174.24577,306.4378)"
           inkscape:export-filename="path4-7-7-8-1.svg"
           inkscape:export-xdpi="96"
           inkscape:export-ydpi="96" /><g
           id="g2-6-7-8"
           transform="matrix(0.64388357,0.00328169,-0.00328169,0.64388357,40.823145,37.749082)"
           style="fill:#ffffff;fill-opacity:1"
           inkscape:label="g2-6-7-8"><rect
             style="opacity:1;fill:#ffffff;fill-opacity:1;stroke-width:0.207201"
             id="rect2-3-9-7"
             width="9.0022411"
             height="26.044136"
             x="-63.410583"
             y="176.36453"
             transform="rotate(-45)"
             ry="3.936202" /><rect
             style="fill:#ffffff;fill-opacity:1;stroke-width:0.262092"
             id="rect2-2-2-2-9"
             width="9.0601873"
             height="50.737049"
             x="-202.40865"
             y="-63.468529"
             transform="rotate(-135)"
             ry="3.936202" /></g></g></g></g></svg>
